# xmcd
#
# Track frame offsets: 
#        150
#        11952
#        24172
#        36747
#        50118
#        62065
#        76490
#        89338
#        100808
#        113163
#        133756
#        147404
#        160475
#        175215
#        189860
#        202427
#        216516
#        229926
#        244364
#        258118
#        270772
#        283090
#        297355
#        312252
#        324411
#        336873
#
# Disc length: 4639 seconds
#
# Revision: 1
# Processed by: cddbd v1.5.2PL0 Copyright (c) Steve Scherf et al.
# Submitted via: ExactAudioCopyFreeDBPlugin 1.0
#
DISCID=95121d1a
DTITLE=Fats Waller - The Essential Collection [CD2]
DYEAR=2006
DGENRE=Jazz
TTITLE0=His Rhythm - Fats Waller - Oooh! Look-A There, Ain't She Pretty
TTITLE0=?
TTITLE1=His Rhythm - Fats Waller - Smarty
TTITLE2=Alligator Crawl
TTITLE3=His Rhythm - Fats Waller - It's A Sin To Tell A Lie
TTITLE4=His Rhythm - Fats Waller - There's Honey On The Moon Tonight
TTITLE5=African Ripples
TTITLE6=His Rhythm - Fats Waller - The Joint Is Jumpin'
TTITLE7=His Rhythm - Fats Waller - The Curse Of An Aching Heart
TTITLE8=His Rhythm - Fats Waller - Fair And Square
TTITLE9=His Rhythm - Fats Waller - Honeysuckle Rose
TTITLE10=His Continental Rhythm - Fats Waller - Ain't Misbehavin'
TTITLE11=His Rhythm - Fats Waller - You Meet The Nicest People In Your 
TTITLE11=Dreams
TTITLE12=His Rhythm - Fats Waller - Anita
TTITLE13=Keepin' Out Of Mischief Now
TTITLE14=His Rhythm - Fats Waller - Suitcase Susie
TTITLE15=His Rhythm - Fats Waller - Your Feet's Too Big
TTITLE16=His Rhythm - Fats Waller - Everybody Loves My Baby
TTITLE17=His Rhythm - Fats Waller - Little Curly Hair In A High Chair
TTITLE18=His Rhythm - Fats Waller - Pantin' In The Panther Room
TTITLE19=His Rhythm - Fats Waller - Old Grand Dad
TTITLE20=His Rhythm - Fats Waller - Shortnin' Bread
TTITLE21=His Rhythm - Fats Waller - Stop Pretending
TTITLE22=His Rhythm - Fats Waller - Bond Street
TTITLE23=His Rhythm and His Orchestra - Fats Waller - Rump Steak Serenade
TTITLE24=His Rhythm - Fats Waller - Twenty-Four Robbers
TTITLE25=The Victor 'First Nighter' Orchestra - Fats Waller - Harlem Wi
TTITLE25=ll Wear
EXTD=YEAR: 2006
EXTT0=
EXTT1=
EXTT2=
EXTT3=
EXTT4=
EXTT5=
EXTT6=
EXTT7=
EXTT8=
EXTT9=
EXTT10=
EXTT11=
EXTT12=
EXTT13=
EXTT14=
EXTT15=
EXTT16=
EXTT17=
EXTT18=
EXTT19=
EXTT20=
EXTT21=
EXTT22=
EXTT23=
EXTT24=
EXTT25=
PLAYORDER=
